<?xml version="1.0" standalone="no"?><!DOCTYPE svg PUBLIC "-//W3C//DTD SVG 1.1//EN" "http://www.w3.org/Graphics/SVG/1.1/DTD/svg11.dtd"><svg t="1532445124697" class="icon" style="" viewBox="0 0 1024 1024" version="1.1" xmlns="http://www.w3.org/2000/svg" p-id="989" xmlns:xlink="http://www.w3.org/1999/xlink" width="200" height="200"><defs><style type="text/css"></style></defs><path d="M447.5 199.4c-3.2-16.1-3.4-32.3-0.6-48.4l13-74.9c0-10.9-15-10.4-15-10.4H349.2s-15-0.5-15 10.4l13 74.9c2.8 16.1 2.6 32.4-0.6 48.4l-12.4 62.2s-1.5 6.6 13.5 6.6h98.6c15 0 13.5-6.6 13.5-6.6l-12.3-62.2zM447.5 581.9c-3.2-33.5-3.4-67.4-0.6-101l13-156.2c0-22.6-15-21.7-15-21.7H349.2s-15-0.9-15 21.7l13 156.2c2.8 33.6 2.6 67.5-0.6 101l-12.4 129.7s-1.5 13.8 13.5 13.8h98.6c15 0 13.5-13.8 13.5-13.8l-12.3-129.7z" fill="#CC0019" p-id="990"></path><path d="M549.3 456.2c14.5-38.6 19.4-79.7 14.8-122.7l-2.3-21.4-12 17.8c-29.9 44.1-45.6 92.1-46.5 143.8-0.3 15.2 0.9 30.5 1.9 45.6 11.9 6.1 30.9 13.4 47.4 16.9 50.5 10.9 101 6.9 151.1-12.2l20.1-7.6-20.3-7.1c-41-14.4-81.9-19-122.7-13.8C640.6 464 689 418.1 725.9 357.8l11.2-18.3-20.4 6.7c-67.2 22.4-123.1 59-167.4 110z" fill="#CC0019" p-id="991"></path><path d="M607.6 552.3c-19.1 0-38.2-2.1-57.3-6.2-18.1-3.9-38.1-11.8-49.8-17.8l-5-2.6-0.7-11.2c-0.9-13.4-1.8-27.2-1.5-41 1-53.2 17.2-103.4 48.2-149.3l27.3-40.4 5.3 48.5c3.3 30.2 1.9 59.7-4 88 40.3-37.4 88.4-65.4 143.4-83.6l46.3-15.3-25.5 41.6c-30.3 49.6-68.5 90-114.1 120.7 28.9 0.8 57.8 6.2 86.5 16.3l46 16.2-45.6 17.3c-32.9 12.5-66.2 18.8-99.5 18.8zM514.7 513c10.7 5 25.9 10.6 39.9 13.6 46.6 10.1 93.6 6.8 139.8-9.7-37.4-12.3-75.2-16.1-112.5-11.3l-55 7.1 49-25.8c56.2-29.6 102.7-73 138.1-129-62.6 21.7-115.5 57-157.3 105l-36.4 41.8 19.5-51.9c13.2-35.3 18.2-73 14.8-112.2-26.7 41.2-40.6 86.1-41.5 133.4-0.1 12.8 0.7 26.1 1.6 39zM345.2 258.2c0-0.1 0-0.1 0 0-0.1 0-0.1 0 0 0z" fill="#231815" p-id="992"></path><path d="M456.7 152.7L469.8 77v-0.9c0-5.3-2-10.1-5.7-13.7-6.8-6.6-17-6.8-19.5-6.7h-95.4c-2.4 0-12.7 0.2-19.5 6.7-3.7 3.6-5.7 8.3-5.7 13.7v0.9l13.1 75.8c2.6 14.9 2.4 29.9-0.6 44.8L325.2 256v0.2c-0.1 0.6-0.2 2-0.2 2.1 0.1 5.5 4.6 9.8 10.1 9.8 5 0 9.2-3.7 10-8.4 0.1-0.5 1.1-6.4 1.1-6.4l10.3-51.9c3.4-17.3 3.7-34.8 0.7-52.1l-12.6-72.8c1.1-0.4 3-0.8 4.5-0.8h96.2c1.1 0 3.3 0.3 4.5 0.8L437 149.3c-1.4 7.8-2 15.7-2.1 23.6v0.2c0 1.6 0 3.3 0.1 4.9v0.3c0 1.5 0.1 2.9 0.2 4.4 0 0.5 0.1 1.1 0.1 1.6 0.1 1.3 0.2 2.6 0.3 3.8 0.1 0.8 0.2 1.5 0.3 2.3 0.1 0.6 0.2 1.2 0.2 1.8 0.1 0.6 0.1 1.3 0.2 1.9 0.4 2.5 0.8 4.9 1.3 7.4l10.3 51.9s1 5.9 1.1 6.4c0.8 4.8 4.9 8.4 10 8.4 5.5 0 10-4.4 10.1-9.8 0-0.1-0.1-1.5-0.2-2.1v-0.2l-11-55.2-0.7-3.5c-1.3-6.4-2-12.9-2.3-19.4v-1.7-0.9-2.6c0-6.6 0.6-13.4 1.8-20.1z" fill="#231815" p-id="993"></path><path d="M447.5 827.2c-3.2 15.3-3.4 30.7-0.6 46l13 71.2c0 10.3-15 9.9-15 9.9H349.2s-15 0.4-15-9.9l13-71.2c2.8-15.3 2.6-30.8-0.6-46L334.3 768s-1.5-6.3 13.5-6.3h98.6c15 0 13.5 6.3 13.5 6.3l-12.4 59.2z" fill="#CC0019" p-id="994"></path><path d="M456.7 871.3l13.1 75.8v0.9c0 5.3-2 10.1-5.7 13.7-6.8 6.6-17 6.8-19.5 6.7h-95.4c-2.4 0-12.7-0.2-19.5-6.7-3.7-3.6-5.7-8.3-5.7-13.7v-1l13.1-75.8c2.6-14.9 2.4-29.9-0.6-44.8L325.2 768v-0.2c-0.1-0.6-0.2-2-0.2-2.1 0.1-5.5 4.6-9.8 10.1-9.8 5 0 9.2 3.7 10 8.4 0.1 0.5 1.1 6.4 1.1 6.4l10.3 51.9c3.4 17.3 3.7 34.8 0.7 52.1l-12.6 72.8c1.1 0.4 3 0.8 4.5 0.8h96.2c1.1 0 3.3-0.3 4.5-0.8L437 874.7c-1.4-7.8-2-15.7-2.1-23.6v-0.2c0-1.6 0-3.3 0.1-4.9v-0.3c0-1.5 0.1-2.9 0.2-4.4 0-0.5 0.1-1.1 0.1-1.6 0.1-1.3 0.2-2.6 0.3-3.8 0.1-0.8 0.2-1.5 0.3-2.3 0.1-0.6 0.2-1.2 0.2-1.8 0.1-0.6 0.1-1.3 0.2-1.9 0.4-2.5 0.8-4.9 1.3-7.4l10.3-51.9s1-5.9 1.1-6.4c0.8-4.8 4.9-8.4 10-8.4 5.5 0 10 4.4 10.1 9.8 0 0.1-0.1 1.5-0.2 2.1v0.2l-11 55.2-0.7 3.5c-1.3 6.4-2 12.9-2.3 19.4v5.2c0 6.6 0.6 13.4 1.8 20.1z" fill="#231815" p-id="995"></path><path d="M639.3 701.5c-3.2-16.1-3.4-32.3-0.6-48.4l13-74.9c0-10.9-15-10.4-15-10.4h-95.6s-15-0.5-15 10.4l13 74.9c2.8 16.1 2.6 32.4-0.6 48.4l-12.4 62.2s-1.5 6.6 13.5 6.6h98.6c15 0 13.5-6.6 13.5-6.6l-12.4-62.2z" fill="#CC0019" p-id="996"></path><path d="M648.5 654.8l13.1-75.8v-0.9c0-5.3-2-10.1-5.7-13.7-6.8-6.6-17-6.8-19.5-6.7H541c-2.4 0-12.7 0.2-19.5 6.7-3.7 3.6-5.7 8.3-5.7 13.7v0.9l13.1 75.8c2.6 14.9 2.4 29.9-0.6 44.8L517 758.1v0.2c-0.1 0.6-0.2 2-0.2 2.1 0.1 5.5 4.6 9.8 10.1 9.8 5 0 9.2-3.7 10-8.4 0.1-0.5 1.1-6.4 1.1-6.4l10.3-51.9c3.4-17.3 3.7-34.8 0.7-52.1l-12.6-72.8c1.1-0.4 3-0.8 4.5-0.8h96.2c1.1 0 3.3 0.3 4.5 0.8L629 651.4c-1.4 7.8-2 15.7-2.1 23.6v0.2c0 1.6 0 3.3 0.1 4.9v0.3c0 1.5 0.1 2.9 0.2 4.4 0 0.5 0.1 1.1 0.1 1.6 0.1 1.3 0.2 2.6 0.3 3.8 0.1 0.8 0.2 1.5 0.3 2.3 0.1 0.6 0.2 1.2 0.2 1.8 0.1 0.6 0.1 1.3 0.2 1.9 0.4 2.5 0.8 4.9 1.3 7.4l10.3 51.9s1 5.9 1.1 6.4c0.8 4.8 4.9 8.4 10 8.4 5.5 0 10-4.4 10.1-9.8 0-0.1-0.1-1.5-0.2-2.1v-0.2l-11-55.2-0.7-3.5c-1.3-6.4-2-12.9-2.3-19.4v-1.7-0.9-2.6c-0.1-6.7 0.4-13.4 1.6-20.1z" fill="#231815" p-id="997"></path><path d="M464.2 283.6m-10 0a10 10 0 1 0 20 0 10 10 0 1 0-20 0Z" fill="#231815" p-id="998"></path><path d="M401.1 764.7m-10 0a10 10 0 1 0 20 0 10 10 0 1 0-20 0Z" fill="#231815" p-id="999"></path><path d="M457.4 581c-3.1-32.9-3.3-66.3-0.6-99.2l13-156.2v-0.8-1h-20v0.6l-13 155.7c-2.8 34.1-2.6 68.7 0.6 102.8l12.4 129.6v-0.2 0.2c0 0.8-0.2 1.9-0.5 2.2-0.1 0.1-1 0.6-3 0.6h-98.7c-2 0-2.8-0.4-3-0.6-0.3-0.3-0.6-1.5-0.5-2.3l12.4-129.6c3.3-34.1 3.5-68.6 0.6-102.8l-13-155.7c0.1-6.8 1.8-11.1 4.7-11.3h64.8v-20h-64.3c-2.3-0.1-9.6 0.3-16.1 6.3-6 5.7-9.1 14.2-9.1 25.4v0.4l13 156.6c2.7 32.9 2.5 66.3-0.6 99.2l-12.4 129.7c-0.2 1.9-0.7 10.6 5.5 17.6 3 3.3 8.4 7.2 17.9 7.2h98.7c9.4 0 14.9-3.9 17.9-7.2 6.2-6.9 5.7-15.7 5.5-17.6L457.4 581z" fill="#231815" p-id="1000"></path><path d="M429.4 313h-25.9c-5.5 0-9.9-4.5-9.9-9.9v-0.1c0-5.5 4.5-9.9 9.9-9.9h25.9c5.5 0 9.9 4.5 9.9 9.9v0.1c0.1 5.4-4.4 9.9-9.9 9.9zM458.9 775.7H433c-5.5 0-9.9-4.5-9.9-9.9v-0.1c0-5.5 4.5-9.9 9.9-9.9h25.9c5.5 0 9.9 4.5 9.9 9.9v0.1c0.1 5.5-4.4 9.9-9.9 9.9zM470.2 320.5l-2.3 25.8c-0.5 5.4-5.3 9.5-10.8 9h-0.1c-5.4-0.5-9.5-5.3-9-10.8l2.3-25.8c0.5-5.4 5.3-9.5 10.8-9h0.1c5.5 0.5 9.5 5.3 9 10.8z" fill="#231815" p-id="1001"></path><path d="M639.3 888c-3.2-16.1-3.4-32.3-0.6-48.4l13-74.9c0-10.9-15-10.4-15-10.4h-95.6s-15-0.5-15 10.4l13 74.9c2.8 16.1 2.6 32.4-0.6 48.4l-12.4 62.2s-1.5 6.6 13.5 6.6h98.6c15 0 13.5-6.6 13.5-6.6L639.3 888z" fill="#A8001C" p-id="1002"></path><path d="M638.2 966.8h-98.7c-9.8 0-16.4-2.4-20.4-7.3-3.7-4.7-3.3-9.5-2.9-11.3l12.4-62.2c3-14.8 3.1-29.9 0.6-44.8l-13.1-75.8v-0.9c0-5.3 2-10.1 5.6-13.7 6.8-6.6 17-6.8 19.5-6.8h95.4c2.4 0 12.7 0.2 19.5 6.8 3.7 3.6 5.7 8.3 5.7 13.7v0.9l-13.1 75.8c-2.6 14.9-2.4 29.9 0.6 44.8l12.4 62.2c0.3 1.7 0.8 6.6-2.9 11.3-4.2 4.9-10.8 7.3-20.6 7.3z m-101.3-20.1c0.7 0.1 1.6 0.1 2.6 0.1h98.7c1 0 1.9 0 2.6-0.1l-11.3-56.8c-3.4-17.3-3.7-34.8-0.7-52.1l12.6-72.8c-1.2-0.5-3.4-0.8-4.5-0.8h-96.2c-1.4 0-3.4 0.3-4.5 0.8l12.6 72.8c3 17.3 2.8 34.8-0.7 52.1l-11.2 56.8z" fill="#231815" p-id="1003"></path><path d="M372.5 355c-5.5 0-10-4.5-10-10s4.5-10 10-10 10 4.5 10 10-4.5 10-10 10zM372.5 445.5c-5.5 0-10-4.5-10-10v-57c0-5.5 4.5-10 10-10s10 4.5 10 10v57c0 5.5-4.5 10-10 10z" fill="#FFBE92" p-id="1004"></path></svg>