<?xml version="1.0" standalone="no"?><!DOCTYPE svg PUBLIC "-//W3C//DTD SVG 1.1//EN" "http://www.w3.org/Graphics/SVG/1.1/DTD/svg11.dtd"><svg t="1532445148516" class="icon" style="" viewBox="0 0 1024 1024" version="1.1" xmlns="http://www.w3.org/2000/svg" p-id="1117" xmlns:xlink="http://www.w3.org/1999/xlink" width="200" height="200"><defs><style type="text/css"></style></defs><path d="M345.861224 250.77551h99.613606v750.933334H345.861224z" fill="#FCD357" p-id="1118"></path><path d="M345.164626 245.202721v762.77551h101.006803V245.202721H345.164626zM435.02585 996.136054H356.310204V256.348299H434.329252V996.136054z" fill="" p-id="1119"></path><path d="M327.053061 245.202721h137.926531v16.021769H327.053061zM327.053061 475.080272h137.926531v16.021769H327.053061zM327.053061 746.753741h137.926531v16.021769H327.053061zM327.053061 993.34966h137.926531v16.021769H327.053061z" fill="" p-id="1120"></path><path d="M536.032653 24.380952h99.613606v976.631293H536.032653z" fill="#FCD357" p-id="1121"></path><path d="M535.336054 17.414966v989.866667H636.342857V17.414966H535.336054z m89.164626 974.541497H546.481633V32.043537h78.019047v959.912926z" fill="" p-id="1122"></path><path d="M516.527891 243.809524h137.926531v16.021769H516.527891zM516.527891 473.687075h137.926531v16.021769H516.527891z" fill="" p-id="1123"></path><path d="M851.591837 493.888435c-112.84898 92.647619-190.868027 10.44898-206.889796-9.055782 29.953741-28.560544 61.997279-42.492517 96.827211-42.492517 52.941497 1.393197 96.130612 39.009524 110.062585 51.548299z" fill="#BD3B39" p-id="1124"></path><path d="M646.095238 495.978231c-4.179592-4.87619-6.269388-7.662585-6.269388-7.662585-1.393197-2.089796-1.393197-4.87619 0.696599-6.965986 30.65034-30.65034 64.783673-45.97551 101.006803-45.97551 64.783673 1.393197 112.152381 52.941497 114.242177 55.031292 1.393197 1.393197 1.393197 2.089796 1.393197 4.179592s-0.696599 2.786395-2.089796 3.482993c-109.365986 94.040816-187.385034 22.291156-208.979592-2.089796z m6.269388-9.752381c14.628571 17.414966 87.07483 93.344218 191.564626 8.359184-12.538776-11.842177-52.941497-46.672109-101.703402-47.368707-32.740136-0.696599-62.693878 12.538776-89.861224 39.009523zM516.527891 746.057143h137.926531v16.021769H516.527891zM516.527891 992.653061h137.926531v16.021769H516.527891z" fill="" p-id="1125"></path><path d="M802.829932 328.097959C785.414966 485.529252 663.510204 480.653061 636.342857 478.563265c1.393197-44.582313 15.32517-80.108844 42.492517-105.882993 41.795918-39.706122 103.793197-43.885714 123.994558-44.582313z" fill="#E64D48" p-id="1126"></path><path d="M516.527891 13.931973h137.926531v16.021768H516.527891zM646.095238 485.529252c-6.269388-0.696599-10.44898-1.393197-10.448979-1.393198-2.786395-0.696599-4.87619-2.786395-4.876191-5.572789 0.696599-47.368707 15.32517-84.985034 43.189116-112.152381 50.851701-48.065306 126.780952-43.885714 129.567347-43.885714 2.089796 0 2.786395 0.696599 4.179591 2.089796 1.393197 1.393197 1.393197 2.786395 1.393198 4.179592-13.931973 155.341497-128.870748 158.82449-163.004082 156.734694z m-3.482993-12.538776c25.077551 2.786395 137.926531 6.269388 153.948299-138.623129-18.808163 0.696599-75.929252 4.179592-114.242177 41.09932-25.077551 23.684354-38.312925 56.42449-39.706122 97.523809z" fill="" p-id="1127"></path><path d="M172.408163 605.344218c158.127891 2.089796 165.093878 124.691156 165.093878 151.858503-44.582313 2.786395-80.805442-7.662585-109.365987-32.740136-43.885714-37.616327-53.638095-98.917007-55.727891-119.118367z" fill="#E64D48" p-id="1128"></path><path d="M343.771429 746.753741c0 6.269388-0.696599 10.44898-0.696599 10.44898-0.696599 2.786395-2.089796 5.572789-5.572789 5.572789-47.368707 4.179592-85.681633-6.965986-115.635374-32.740136-52.244898-45.97551-55.727891-121.904762-55.727891-124.691156 0-2.089796 0.696599-2.786395 1.393197-4.179592 1.393197-1.393197 3.482993-2.089796 4.179592-2.089796 156.038095-1.393197 170.666667 112.84898 172.059864 147.678911z m-11.842177 4.179592c0-25.077551-6.965986-137.926531-152.555102-140.016326 2.089796 18.808163 11.145578 75.232653 51.548299 110.062585 25.77415 22.987755 59.210884 32.740136 101.006803 29.953741z" fill="" p-id="1129"></path></svg>