<?xml version="1.0" standalone="no"?><!DOCTYPE svg PUBLIC "-//W3C//DTD SVG 1.1//EN" "http://www.w3.org/Graphics/SVG/1.1/DTD/svg11.dtd"><svg t="1532445176739" class="icon" style="" viewBox="0 0 1024 1024" version="1.1" xmlns="http://www.w3.org/2000/svg" p-id="1244" xmlns:xlink="http://www.w3.org/1999/xlink" width="200" height="200"><defs><style type="text/css"></style></defs><path d="M391.022127 461.535887s0-99.872244-37.453342-137.323586c-21.06963-21.06963-133.815648-75.522672-185.860733-100.054241-8.985842-4.235926-18.299678 5.075911-14.063753 14.063753 24.531569 52.047085 78.986612 164.793103 100.054241 185.860732 5.179909 5.179909 11.627796 9.579832 18.763671 13.423764-46.529182 3.211944-105.474146 10.21182-139.533548 14.513745-9.475833 1.195979-12.229785 13.555762-4.159927 18.665672 46.747178 29.58348 149.081379 92.988365 177.044888 99.220256 49.705126 11.075805 130.747702-40.429289 130.747702-40.429289l-45.539199-67.940806zM897.70122 332.616153c5.555902-6.26789 0.229996-16.007719-8.043859-14.711741-47.919158 7.509868-152.041327 24.839563-174.080939 36.891351-39.175311 21.421623-62.848895 102.220203-62.848896 102.220204l-52.949069 44.173223s53.357062 60.87893 96.194309 63.69888c24.099576 1.585972 121.919857-25.453553 166.751069-38.307326 7.741864-2.217961 8.443852-12.869774 1.059981-16.085718-26.533534-11.555797-72.560725-31.189452-109.444076-44.817212 6.685882-1.419975 12.945772-3.451939 18.363677-6.413887 22.037613-12.047788 92.814368-90.356412 124.997803-126.647774z" fill="#8CE16E" p-id="1245"></path><path d="M743.775926 407.230842a15.883721 15.883721 0 0 0-21.559621-6.315889l-140.021539 76.564654v-0.797986h-151.065344l-102.532198-102.532198a17.64969 17.64969 0 0 0-24.965561 0 17.64969 17.64969 0 0 0 0 24.965561l107.258114 107.258115-70.048768-15.609726a16.971702 16.971702 0 0 0-20.259644 12.875774 16.971702 16.971702 0 0 0 12.875773 20.259644l105.040154 23.403588H565.013068c-0.113998-0.229996-0.347994-0.377993-0.471992-0.601989v-23.353589l14.391747-7.869862 103.642179 6.82388a15.619725 15.619725 0 0 0 16.617708-14.563744 15.619725 15.619725 0 0 0-14.563744-16.617708l-54.579041-3.591937 107.412112-58.734967a15.887721 15.887721 0 0 0 6.313889-21.561621z" fill="#7DC86E" p-id="1246"></path><path d="M459.454924 476.681621h105.930138v70.618758h-105.930138z" fill="#FFB450" p-id="1247"></path><path d="M565.391061 927.601695V626.024996c0-12.295784 6.135892-24.169575 16.923703-30.073472 12.547779-6.865879 20.47364-21.131629 17.901685-36.927351-2.82395-17.361695-19.127664-29.379484-36.715354-29.379483h-102.148205c-17.587691 0-33.893404 12.017789-36.715354 29.379483-2.567955 15.795722 5.353906 30.061472 17.901685 36.927351 10.78781 5.903896 16.923703 17.775688 16.923703 30.073472v301.576699c0 12.299784-6.137892 24.169575-16.923703 30.073471-12.547779 6.865879-20.47164 21.127629-17.901685 36.925351C427.459486 1011.962212 443.7612 1023.982 461.35289 1023.982h102.154205c17.587691 0 33.891404-12.019789 36.715354-29.381483 2.567955-15.795722-5.353906-30.059472-17.901685-36.925351-10.79581-5.901896-16.929702-17.773688-16.929703-30.073471z" fill="#FFDC78" p-id="1248"></path><path d="M441.807234 971.016931h35.309379c19.501657 0 35.309379-15.807722 35.30938-35.309379V617.921138c0-19.501657-15.807722-35.309379-35.30938-35.309379h-35.309379c-8.965842 0-16.071717-6.783881-17.207698-15.439729 0.791986 12.291784 7.509868 22.961596 17.691689 28.645497 10.82781 6.039894 17.171698 17.811687 17.171699 30.209469V927.603694c0 12.395782-6.341889 24.167575-17.169699 30.207469-10.183821 5.6819-16.901703 16.353713-17.693689 28.647497 1.13198-8.655848 8.239855-15.441729 17.207698-15.441729z" fill="#FFCF65" p-id="1249"></path><path d="M565.391061 397.957005V96.380306c0-12.295784 6.135892-24.169575 16.923703-30.073472 12.547779-6.865879 20.47364-21.131629 17.901685-36.92735C597.392499 12.017789 581.086786 0 563.499095 0h-102.148205c-17.587691 0-33.893404 12.017789-36.715354 29.379484-2.567955 15.795722 5.353906 30.061472 17.901685 36.92735 10.78781 5.903896 16.923703 17.775688 16.923703 30.073472v301.576699c0 12.299784-6.137892 24.169575-16.923703 30.073471-12.547779 6.865879-20.47164 21.127629-17.901685 36.925351 2.82195 17.361695 19.123664 29.381484 36.715354 29.381483h102.154205c17.587691 0 33.891404-12.019789 36.715354-29.381483 2.567955-15.795722-5.353906-30.059472-17.901685-36.925351-10.79381-5.901896-16.927702-17.775688-16.927703-30.073471z" fill="#FFDC78" p-id="1250"></path><path d="M441.807234 441.372242h35.309379c19.501657 0 35.309379-15.807722 35.30938-35.30938V88.274448c0-19.501657-15.807722-35.309379-35.30938-35.309379h-35.309379c-8.965842 0-16.071717-6.783881-17.207698-15.439729 0.791986 12.291784 7.509868 22.961596 17.691689 28.645497 10.82781 6.039894 17.171698 17.811687 17.171699 30.209469v301.576699c0 12.395782-6.341889 24.167575-17.169699 30.207469-10.183821 5.6819-16.901703 16.353713-17.693689 28.647496 1.13198-8.653848 8.239855-15.439729 17.207698-15.439728z" fill="#FFCF65" p-id="1251"></path></svg>